<?xml version="1.0" standalone="no"?>
<!DOCTYPE svg PUBLIC "-//W3C//DTD SVG 20010904//EN"
 "http://www.w3.org/TR/2001/REC-SVG-20010904/DTD/svg10.dtd">
<svg version="1.0" xmlns="http://www.w3.org/2000/svg"
 width="1066.000000pt" height="1280.000000pt" viewBox="0 0 1066.000000 1280.000000"
 preserveAspectRatio="xMidYMid meet">
<metadata>
Created by potrace 1.15, written by Peter Selinger 2001-2017
</metadata>
<g transform="translate(0.000000,1280.000000) scale(0.100000,-0.100000)"
fill="#000000" stroke="none">
<path d="M6550 10816 c-156 -60 -297 -163 -487 -357 -225 -230 -408 -509 -482
-736 -84 -262 -103 -603 -52 -918 6 -33 22 -136 37 -228 100 -647 292 -951
649 -1034 121 -27 403 -25 542 5 319 69 616 220 881 447 257 221 427 476 495
745 29 115 31 427 3 565 -101 513 -393 986 -794 1287 -98 74 -290 170 -407
204 -110 32 -326 43 -385 20z"/>
<path d="M4013 10776 c-202 -39 -396 -146 -583 -322 -260 -245 -483 -634 -585
-1019 -51 -196 -59 -258 -59 -485 0 -200 2 -222 26 -317 93 -358 355 -701 719
-940 193 -126 409 -216 602 -249 141 -25 366 -15 473 19 313 102 471 404 564
1072 11 83 26 186 33 230 7 49 12 183 12 345 -1 251 -2 272 -28 395 -36 169
-65 254 -137 400 -174 353 -505 727 -747 842 -85 41 -178 50 -290 29z"/>
<path d="M1830 7895 c-248 -63 -444 -275 -585 -630 -72 -180 -134 -454 -156
-680 -18 -186 -7 -600 21 -750 39 -217 77 -339 156 -501 155 -314 390 -474
697 -474 199 0 388 56 600 179 355 203 666 566 770 896 45 140 52 192 52 370
-1 189 -13 266 -71 443 -171 524 -653 998 -1149 1132 -102 28 -260 35 -335 15z"/>
<path d="M8440 7725 c-165 -33 -382 -133 -549 -253 -172 -123 -360 -317 -479
-493 -141 -210 -208 -401 -219 -620 -20 -405 176 -814 574 -1199 327 -317 702
-526 1055 -590 273 -49 446 -7 593 145 39 39 89 106 113 147 57 100 108 246
117 333 3 39 13 99 20 135 37 182 40 219 40 500 0 297 -6 363 -56 620 -27 139
-101 396 -145 507 -94 236 -198 409 -335 558 -68 75 -100 100 -170 138 -122
66 -212 87 -368 86 -69 0 -155 -7 -191 -14z"/>
<path d="M5264 5739 c-251 -16 -595 -79 -774 -141 -157 -55 -257 -119 -490
-318 -175 -149 -232 -191 -378 -277 -168 -99 -535 -302 -912 -503 -387 -206
-433 -235 -513 -319 -76 -81 -145 -210 -179 -336 -30 -110 -33 -425 -5 -555
109 -508 630 -784 1697 -899 290 -32 502 -44 1150 -67 234 -8 495 -19 580 -25
258 -16 1211 -23 1418 -10 551 35 979 131 1317 296 172 83 298 170 416 283
155 149 198 260 186 492 -10 199 -84 410 -199 565 -110 148 -255 263 -611 486
-417 259 -476 309 -773 656 -292 340 -423 441 -689 531 -356 121 -787 170
-1241 141z"/>
</g>
</svg>
