<svg width="1064" height="1047" viewBox="0 0 1064 1047" fill="none" xmlns="http://www.w3.org/2000/svg">
<path d="M80.1914 682.67C79.0214 682.67 77.8614 682.82 76.6914 682.97C83.3914 707.54 89.6905 726.83 94.0605 739.64L94.3213 739.52C88.1615 720.96 83.4377 701.954 80.1914 682.67ZM80.1914 682.67C79.0214 682.67 77.8614 682.82 76.6914 682.97C83.3914 707.54 89.6905 726.83 94.0605 739.64L94.3213 739.52C88.1615 720.96 83.4377 701.954 80.1914 682.67Z" fill="#F5CF46"/>
<path d="M1046.75 868.6C987.94 819.25 905.75 586.33 879.09 500.73C875.32 487.41 870.94 474.31 865.92 461.52C863.86 450.96 849.63 385.29 808.16 301.26C767.28 218.37 690.94 101.31 559.49 14.5804L539.24 1.21025C538.304 0.589988 537.216 0.238383 536.094 0.193408C534.972 0.148433 533.859 0.411769 532.877 0.955127C531.894 1.49848 531.08 2.30105 530.521 3.2752C529.963 4.24934 529.682 5.35781 529.71 6.48027L530.29 30.7803C530.29 31.7203 532.29 123.28 508.21 190.08C494.184 188.678 480.096 187.983 466 188C348.34 188 241.63 235.59 164 312.56C87.6299 275.15 61.6701 201.56 61.4101 200.85L47.5995 159.79C47.1647 158.499 46.3229 157.385 45.2001 156.613C44.0773 155.842 42.7339 155.456 41.373 155.514C40.012 155.571 38.707 156.069 37.6532 156.932C36.5994 157.795 35.8546 158.977 35.5302 160.3L25.2401 202.36C-18.5399 381.29 5.11955 551.36 30.8896 658.36C34.1996 672.04 37.5197 684.73 40.7997 696.23C41.7953 695.512 42.8265 694.844 43.8896 694.23C53.6951 747.841 73.6863 799.075 102.78 845.16C109.86 856.42 117.457 867.32 125.57 877.86C204.09 980.04 327.48 1046.01 465.98 1046.01C570.707 1046.1 671.817 1007.72 750.099 938.15C760.31 938.71 770.559 938.94 780.809 938.94C907.289 938.94 1033.96 902.8 1039.81 901.11L1056.46 896.31C1058.13 895.829 1059.64 894.901 1060.83 893.627C1062.01 892.353 1062.83 890.78 1063.19 889.077C1063.55 887.374 1063.44 885.606 1062.87 883.961C1062.3 882.316 1061.29 880.857 1059.96 879.74L1046.75 868.6ZM567.28 66.0003C670.81 142.86 735.43 239.61 774.54 319.18C713.055 255.289 633.246 212.069 546.14 195.49C560.83 150.71 565.73 99.5103 567.28 66.0003ZM466 225.65C625.71 225.65 763.42 321.84 824.12 459.36L189.19 703.09L153.19 716.92L94.2597 739.52L93.9999 739.64C89.5899 726.83 83.3298 707.54 76.6298 682.97C77.7998 682.82 78.9598 682.71 80.1298 682.67C78.0165 670.39 76.5103 657.894 75.6103 645.18C74.9436 635.88 74.6103 626.487 74.6103 617C74.6503 401.22 250.23 225.65 466 225.65ZM46.2802 527.89C36.8602 449.53 34.6402 357.44 51.2802 261.89C68.7302 287.77 96.2794 318.67 137.519 341.27C92.2221 395.022 60.8961 459.125 46.3202 527.89H46.2802ZM107.809 774.68L167.49 751.77C168.168 756.02 168.503 760.317 168.49 764.62C168.496 777.031 165.684 789.28 160.267 800.446C154.851 811.612 146.97 821.403 137.22 829.08C125.98 811.768 116.158 793.575 107.85 774.68H107.809ZM485.21 1007.89C353.3 1014.23 234.61 954.89 159.21 859.71C177.423 845.773 191.252 826.9 199.052 805.333C206.852 783.766 208.294 760.413 203.21 738.05L837.69 494.51C853.905 543.622 860.207 595.464 856.23 647.03C841.61 842.45 681 998.47 485.25 1007.89H485.21ZM787.08 901.19C847.884 832.818 885.104 746.715 893.25 655.58C922.94 733.27 961.98 823.09 999.61 872.58C956.14 883 871.14 900.33 787.12 901.19H787.08Z" fill="#F5CF46"/>
<path d="M65.8389 771.7H65.7588C64.3688 768.27 53.3694 740.88 40.8594 696.16C41.855 695.442 42.8861 694.774 43.9492 694.16C48.7686 720.643 56.0979 746.607 65.8389 771.7Z" fill="#F5CF46"/>
<path d="M217.64 545C206.79 547.9 193.34 532.94 187.64 511.62C181.94 490.3 186.091 470.62 196.941 467.69C207.791 464.76 221.251 479.69 226.941 501.07C232.631 522.45 228.49 542.1 217.64 545Z" fill="#F5CF46"/>
<path d="M510.421 433.33C499.571 436.23 486.121 421.27 480.421 399.94C474.721 378.61 478.881 358.94 489.731 356.01C500.581 353.08 514.031 368.07 519.731 389.39C525.431 410.71 521.271 430.42 510.421 433.33Z" fill="#F5CF46"/>
<path d="M605.361 709.047C616.217 706.138 620.382 686.477 614.663 665.133C608.944 643.789 595.506 628.845 584.65 631.754C573.794 634.663 569.63 654.323 575.349 675.667C581.069 697.011 594.505 711.956 605.361 709.047Z" fill="#F5CF46"/>
</svg>
