<svg width="1064" height="1047" viewBox="0 0 1064 1047" fill="none" xmlns="http://www.w3.org/2000/svg">
<path d="M80.2109 683.319C79.0399 683.359 77.8717 683.459 76.7109 683.619C83.4109 708.179 89.7111 727.469 94.0811 740.279L94.3408 740.169C88.1833 721.609 83.4596 702.603 80.2109 683.319ZM80.2109 683.319C79.0399 683.359 77.8717 683.459 76.7109 683.619C83.4109 708.179 89.7111 727.469 94.0811 740.279L94.3408 740.169C88.1833 721.609 83.4596 702.603 80.2109 683.319Z" fill="#185E8D"/>
<path d="M1046.77 869.25C987.96 819.89 905.771 586.98 879.111 501.37C875.337 488.036 870.947 474.97 865.941 462.17C863.881 451.61 849.64 385.95 808.17 301.92C767.3 219.03 690.96 101.97 559.51 15.2297L539.26 1.85965C538.322 1.2435 537.233 0.895443 536.112 0.853033C534.99 0.810622 533.878 1.07548 532.896 1.61902C531.914 2.16257 531.099 2.96411 530.539 3.93708C529.98 4.91005 529.696 6.01748 529.72 7.13968L530.31 31.4397C530.31 32.3797 532.311 123.93 508.231 190.73C494.357 189.343 480.317 188.653 466.111 188.66C348.441 188.66 241.741 236.25 164.111 313.22C87.7407 275.81 61.7801 202.22 61.5101 201.51L47.7103 160.44C47.2723 159.15 46.4283 158.038 45.305 157.268C44.1817 156.499 42.8401 156.114 41.4798 156.172C40.1195 156.229 38.8135 156.726 37.7591 157.587C36.7047 158.448 35.9579 159.628 35.6302 160.95L25.3206 203C-18.4694 381.92 5.20004 552 30.97 659C34.28 672.67 37.6002 685.37 40.8802 696.86C41.8802 696.15 42.88 695.51 43.97 694.86C53.7755 748.472 73.7624 799.709 102.85 845.8C109.943 857.06 117.544 867.96 125.651 878.5C204.171 980.68 327.56 1046.65 466.06 1046.65C570.788 1046.74 671.899 1008.35 750.18 938.78C760.39 939.35 770.64 939.57 780.88 939.57C907.36 939.57 1034.03 903.44 1039.88 901.75L1056.53 896.94C1058.2 896.457 1059.71 895.529 1060.89 894.256C1062.08 892.982 1062.89 891.411 1063.25 889.71C1063.61 888.009 1063.5 886.242 1062.93 884.599C1062.37 882.955 1061.36 881.497 1060.03 880.38L1046.77 869.25ZM567.29 66.6597C670.83 143.52 735.45 240.28 774.55 319.85C713.07 255.957 633.265 212.737 546.16 196.16C560.85 151.36 565.75 100.16 567.29 66.6597ZM466.06 226.3C625.77 226.3 763.48 322.49 824.17 460.01L189.25 703.74L153.25 717.56L94.3206 740.17L94.0599 740.28C89.6499 727.47 83.3907 708.18 76.6907 683.62C77.8515 683.46 79.0197 683.36 80.1907 683.32C78.0841 671.026 76.5769 658.53 75.6702 645.83C75.0036 636.496 74.6702 627.103 74.6702 617.65C74.6702 401.87 250.25 226.3 466.06 226.3ZM46.3402 528.54C36.9202 450.17 34.7002 358.09 51.3402 262.54C68.7802 288.43 96.3404 319.32 137.58 341.93C92.2701 395.674 60.9293 459.774 46.3402 528.54ZM107.861 775.32L167.54 752.41C168.218 756.659 168.553 760.956 168.54 765.26C168.544 777.671 165.731 789.921 160.315 801.089C154.898 812.256 147.019 822.048 137.27 829.73C126.023 812.411 116.188 794.216 107.861 775.32ZM485.27 1008.53C353.35 1014.87 234.67 955.53 159.27 860.36C177.483 846.423 191.312 827.549 199.112 805.982C206.912 784.416 208.354 761.063 203.27 738.7L837.75 495.16C853.965 544.271 860.267 596.114 856.29 647.68C841.63 843.1 681 999.12 485.27 1008.53ZM787.14 901.84C847.942 833.466 885.162 747.364 893.31 656.23C923 733.92 962.03 823.74 999.67 873.23C956.16 883.61 871.16 901 787.14 901.84Z" fill="#185E8D"/>
<path d="M65.8594 772.35H65.7793C64.3893 768.92 53.3789 741.53 40.8789 696.81C41.8789 696.1 42.8787 695.46 43.9688 694.81C48.7853 721.293 56.1157 747.257 65.8594 772.35Z" fill="#185E8D"/>
<path d="M217.65 545.65C206.8 548.55 193.35 533.59 187.65 512.26C181.95 490.93 186.1 471.26 196.95 468.33C207.8 465.4 221.25 480.39 226.95 501.71C232.65 523.03 228.51 542.74 217.65 545.65Z" fill="#185E8D"/>
<path d="M510.441 434C499.591 436.9 486.141 421.94 480.441 400.62C474.741 379.3 478.9 359.62 489.75 356.69C500.6 353.76 514.05 368.75 519.75 390.07C525.45 411.39 521.291 431.07 510.441 434Z" fill="#185E8D"/>
<path d="M605.375 709.687C616.231 706.778 620.396 687.117 614.677 665.773C608.957 644.429 595.52 629.484 584.664 632.393C573.808 635.302 569.644 654.963 575.363 676.307C581.082 697.651 594.519 712.596 605.375 709.687Z" fill="#185E8D"/>
</svg>
